<svg xmlns="http://www.w3.org/2000/svg" width="19.174" height="19.174" viewBox="0 0 19.174 19.174">
  <path id="合体_1" data-name="合体 1" d="M5.314,18.174A5.319,5.319,0,0,1,0,12.86V5.314A5.32,5.32,0,0,1,5.314,0H12.86a5.32,5.32,0,0,1,5.314,5.314V12.86a5.319,5.319,0,0,1-5.314,5.314ZM1.694,5.314V12.86a3.624,3.624,0,0,0,3.62,3.62H12.86a3.624,3.624,0,0,0,3.619-3.62V5.314a3.624,3.624,0,0,0-3.619-3.62H5.314A3.624,3.624,0,0,0,1.694,5.314Zm2.7,3.773a4.7,4.7,0,1,1,4.7,4.7A4.7,4.7,0,0,1,4.389,9.087Zm1.694,0a3,3,0,1,0,3-3A3.006,3.006,0,0,0,6.084,9.087ZM12.81,4.24a1.132,1.132,0,1,1,1.132,1.132A1.132,1.132,0,0,1,12.81,4.24Z" transform="translate(0.5 0.5)" fill="#fff" stroke="rgba(0,0,0,0)" stroke-miterlimit="10" stroke-width="1"/>
</svg>
