<svg xmlns="http://www.w3.org/2000/svg" width="150" height="150" viewBox="0 0 150 150">
  <g id="グループ_17" data-name="グループ 17" transform="translate(-446 -1268)">
    <circle id="楕円形_1" data-name="楕円形 1" cx="75" cy="75" r="75" transform="translate(446 1268)" fill="#e68b8b"/>
    <g id="W_Mark" data-name="W Mark" transform="translate(466 1288)">
      <path id="パス_13" data-name="パス 13" d="M-903.6-751.049a51.122,51.122,0,0,1,20.024,4.042,51.445,51.445,0,0,1,8.738,4.743,51.833,51.833,0,0,1,7.616,6.284,51.842,51.842,0,0,1,6.284,7.616,51.445,51.445,0,0,1,4.743,8.738,51.119,51.119,0,0,1,4.042,20.024,51.118,51.118,0,0,1-4.042,20.024,51.445,51.445,0,0,1-4.743,8.738,51.842,51.842,0,0,1-6.284,7.616,51.828,51.828,0,0,1-7.616,6.284,51.458,51.458,0,0,1-8.738,4.743,51.12,51.12,0,0,1-20.024,4.042,51.12,51.12,0,0,1-20.024-4.042,51.458,51.458,0,0,1-8.738-4.743,51.832,51.832,0,0,1-7.616-6.284,51.838,51.838,0,0,1-6.284-7.616,51.445,51.445,0,0,1-4.743-8.738,51.117,51.117,0,0,1-4.042-20.024,51.118,51.118,0,0,1,4.042-20.024,51.445,51.445,0,0,1,4.743-8.738,51.838,51.838,0,0,1,6.284-7.616,51.836,51.836,0,0,1,7.616-6.284,51.445,51.445,0,0,1,8.738-4.743,51.121,51.121,0,0,1,20.024-4.042m0-3.284a54.73,54.73,0,0,0-54.73,54.73,54.73,54.73,0,0,0,54.73,54.73,54.73,54.73,0,0,0,54.73-54.73,54.73,54.73,0,0,0-54.73-54.73Z" transform="translate(958.333 754.333)" fill="#fff"/>
      <path id="パス_14" data-name="パス 14" d="M-902.778-653.171a45.611,45.611,0,0,0,25.706,41.045l-21.756-59.606A45.428,45.428,0,0,0-902.778-653.171Zm76.4-2.3a24.019,24.019,0,0,0-3.76-12.578c-2.312-3.759-4.48-6.938-4.48-10.7a7.9,7.9,0,0,1,7.659-8.094c.2,0,.394.024.591.037a45.438,45.438,0,0,0-30.8-11.974,45.557,45.557,0,0,0-38.107,20.556c1.071.034,2.08.055,2.935.055,4.77,0,12.156-.58,12.156-.58a1.885,1.885,0,0,1,.292,3.758s-2.471.289-5.219.433l16.608,49.4,9.982-29.933-7.105-19.468c-2.457-.144-4.784-.433-4.784-.433-2.459-.145-2.17-3.9.289-3.758,0,0,7.53.58,12.011.58,4.77,0,12.157-.58,12.157-.58a1.885,1.885,0,0,1,.291,3.758s-2.474.289-5.22.433l16.482,49.026,4.7-14.909C-827.606-646.953-826.38-651.569-826.38-655.472Zm-29.988,6.29-13.686,39.762a45.574,45.574,0,0,0,12.885,1.858,45.511,45.511,0,0,0,15.146-2.586,4.147,4.147,0,0,1-.327-.629Zm39.221-25.869a35.023,35.023,0,0,1,.307,4.69,43.054,43.054,0,0,1-3.469,16.335l-13.93,40.275a45.581,45.581,0,0,0,22.678-39.42A45.392,45.392,0,0,0-817.147-675.051Z" transform="translate(911.9 707.9)" fill="#fff"/>
    </g>
  </g>
</svg>
