<svg xmlns="http://www.w3.org/2000/svg" width="150" height="150" viewBox="0 0 150 150">
  <g id="グループ_18" data-name="グループ 18" transform="translate(-736 -1268)">
    <circle id="楕円形_1" data-name="楕円形 1" cx="75" cy="75" r="75" transform="translate(736 1268)" fill="#e6d18b"/>
    <g id="グループ_14" data-name="グループ 14" transform="translate(767 1295)">
      <path id="パス_3" data-name="パス 3" d="M612.281,294.565v27.2a5.064,5.064,0,0,1-5.058,5.059H552.082a5.064,5.064,0,0,1-5.059-5.059V266.626a5.064,5.064,0,0,1,5.059-5.059h27.838l6.659-6.659h-34.5a11.752,11.752,0,0,0-11.718,11.718v55.141a11.752,11.752,0,0,0,11.718,11.718h55.141a11.752,11.752,0,0,0,11.717-11.718V287.906Z" transform="translate(-540.364 -237.576)" fill="#fff"/>
      <path id="パス_4" data-name="パス 4" d="M562.218,315.629a3.925,3.925,0,0,1-3.792-4.942l7.519-28.065a3.941,3.941,0,0,1,1.016-1.759L611.629,236.2a3.925,3.925,0,0,1,5.552,0l20.543,20.544a3.925,3.925,0,0,1,0,5.552l-44.666,44.666a3.925,3.925,0,0,1-1.759,1.017l-28.065,7.519A3.9,3.9,0,0,1,562.218,315.629Zm13.6-11.253,9.759-2.614-1.279-3.345-7.156-1.8-1.8-7.158-3.155-1.206-2.64,9.851Zm12.835-10.866,2.011,5.263,39.256-39.256L614.4,244l-39.183,39.182,5.023,1.92,1.688,6.717Z" transform="translate(-542.648 -235.046)" fill="#fff"/>
    </g>
  </g>
</svg>
