<svg xmlns="http://www.w3.org/2000/svg" width="20.528" height="16.683" viewBox="0 0 20.528 16.683">
  <path id="パス_5" data-name="パス 5" d="M81.456,115.094a11.9,11.9,0,0,0,11.983-11.983c0-.182,0-.364-.012-.544a8.57,8.57,0,0,0,2.1-2.181,8.407,8.407,0,0,1-2.419.663,4.226,4.226,0,0,0,1.852-2.33,8.44,8.44,0,0,1-2.674,1.022,4.215,4.215,0,0,0-7.177,3.841,11.957,11.957,0,0,1-8.681-4.4,4.215,4.215,0,0,0,1.3,5.622,4.18,4.18,0,0,1-1.907-.527c0,.018,0,.035,0,.054A4.213,4.213,0,0,0,79.2,108.46a4.2,4.2,0,0,1-1.9.072,4.216,4.216,0,0,0,3.934,2.925,8.451,8.451,0,0,1-5.231,1.8,8.565,8.565,0,0,1-1-.058,11.923,11.923,0,0,0,6.456,1.892" transform="translate(-75 -98.411)" fill="#fff"/>
</svg>
