<svg xmlns="http://www.w3.org/2000/svg" width="21.5" height="15.35" viewBox="0 0 21.5 15.35">
  <path id="前面オブジェクトで型抜き_2" data-name="前面オブジェクトで型抜き 2" d="M10.251,14.35c-.064,0-6.429,0-8.01-.428A2.567,2.567,0,0,1,.428,12.11,26.846,26.846,0,0,1,0,7.175,26.836,26.836,0,0,1,.428,2.241,2.568,2.568,0,0,1,2.241.428C3.821,0,10.186,0,10.251,0s6.429,0,8.009.428a2.568,2.568,0,0,1,1.813,1.813A26.836,26.836,0,0,1,20.5,7.175a26.846,26.846,0,0,1-.428,4.935,2.567,2.567,0,0,1-1.813,1.812C16.679,14.345,10.315,14.35,10.251,14.35ZM8.2,4.1v6.15l5.326-3.075Z" transform="translate(0.5 0.5)" fill="#fff" stroke="rgba(0,0,0,0)" stroke-miterlimit="10" stroke-width="1"/>
</svg>
